<svg xmlns="http://www.w3.org/2000/svg" xmlns:xlink="http://www.w3.org/1999/xlink" width="1920" zoomAndPan="magnify" viewBox="0 0 1440 2015.999918" height="2688" preserveAspectRatio="xMidYMid meet" version="1.0"><defs><clipPath id="054cb968e1"><path d="M 148 613.003906 L 1304 613.003906 L 1304 1203.253906 L 148 1203.253906 Z M 148 613.003906 " clip-rule="nonzero"/></clipPath></defs><rect x="-144" width="1728" fill="#ffffff" y="-201.599992" height="2419.199902" fill-opacity="1"/><rect x="-144" width="1728" fill="#ffffff" y="-201.599992" height="2419.199902" fill-opacity="1"/><g clip-path="url(#054cb968e1)"><path fill="#d0c19c" d="M 1247.785156 613.003906 L 458.566406 613.003906 L 458.566406 626.832031 C 458.566406 630.289062 455.972656 632.882812 452.511719 632.882812 C 449.054688 632.882812 446.460938 630.289062 446.460938 626.832031 L 446.460938 613.003906 L 202.695312 613.003906 C 202.695312 643.257812 178.492188 667.460938 148.234375 667.460938 L 148.234375 1148.945312 C 178.492188 1148.945312 202.695312 1173.148438 202.695312 1203.40625 L 447.328125 1203.40625 L 447.328125 1189.574219 C 447.328125 1186.117188 449.921875 1183.523438 453.378906 1183.523438 C 456.835938 1183.523438 459.429688 1186.117188 459.429688 1189.574219 L 459.429688 1203.40625 L 1248.648438 1203.40625 C 1248.648438 1173.148438 1272.851562 1148.945312 1303.109375 1148.945312 L 1303.109375 667.460938 C 1271.988281 667.460938 1247.785156 643.257812 1247.785156 613.003906 Z M 458.566406 1171.421875 C 458.566406 1174.878906 455.972656 1177.472656 452.511719 1177.472656 C 449.054688 1177.472656 446.460938 1174.878906 446.460938 1171.421875 L 446.460938 1144.625 C 446.460938 1141.167969 449.054688 1138.574219 452.511719 1138.574219 C 455.972656 1138.574219 458.566406 1141.167969 458.566406 1144.625 Z M 458.566406 1126.472656 C 458.566406 1129.929688 455.972656 1132.523438 452.511719 1132.523438 C 449.054688 1132.523438 446.460938 1129.929688 446.460938 1126.472656 L 446.460938 1099.671875 C 446.460938 1096.214844 449.054688 1093.621094 452.511719 1093.621094 C 455.972656 1093.621094 458.566406 1096.214844 458.566406 1099.671875 Z M 458.566406 1080.65625 C 458.566406 1084.113281 455.972656 1086.707031 452.511719 1086.707031 C 449.054688 1086.707031 446.460938 1084.113281 446.460938 1080.65625 L 446.460938 1053.859375 C 446.460938 1050.402344 449.054688 1047.808594 452.511719 1047.808594 C 455.972656 1047.808594 458.566406 1050.402344 458.566406 1053.859375 Z M 458.566406 1035.707031 C 458.566406 1039.164062 455.972656 1041.757812 452.511719 1041.757812 C 449.054688 1041.757812 446.460938 1039.164062 446.460938 1035.707031 L 446.460938 1008.910156 C 446.460938 1005.453125 449.054688 1002.859375 452.511719 1002.859375 C 455.972656 1002.859375 458.566406 1005.453125 458.566406 1008.910156 Z M 458.566406 989.890625 C 458.566406 993.347656 455.972656 995.941406 452.511719 995.941406 C 449.054688 995.941406 446.460938 993.347656 446.460938 989.890625 L 446.460938 963.09375 C 446.460938 959.636719 449.054688 957.042969 452.511719 957.042969 C 455.972656 957.042969 458.566406 959.636719 458.566406 963.09375 Z M 458.566406 944.078125 C 458.566406 947.535156 455.972656 950.128906 452.511719 950.128906 C 449.054688 950.128906 446.460938 947.535156 446.460938 944.078125 L 446.460938 917.28125 C 446.460938 913.824219 449.054688 911.230469 452.511719 911.230469 C 455.972656 911.230469 458.566406 913.824219 458.566406 917.28125 Z M 458.566406 899.128906 C 458.566406 902.585938 455.972656 905.179688 452.511719 905.179688 C 449.054688 905.179688 446.460938 902.585938 446.460938 899.128906 L 446.460938 872.328125 C 446.460938 868.871094 449.054688 866.277344 452.511719 866.277344 C 455.972656 866.277344 458.566406 868.871094 458.566406 872.328125 Z M 458.566406 853.3125 C 458.566406 856.769531 455.972656 859.363281 452.511719 859.363281 C 449.054688 859.363281 446.460938 856.769531 446.460938 853.3125 L 446.460938 826.515625 C 446.460938 823.058594 449.054688 820.464844 452.511719 820.464844 C 455.972656 820.464844 458.566406 823.058594 458.566406 826.515625 Z M 458.566406 808.363281 C 458.566406 811.820312 455.972656 814.414062 452.511719 814.414062 C 449.054688 814.414062 446.460938 811.820312 446.460938 808.363281 L 446.460938 781.566406 C 446.460938 778.109375 449.054688 775.515625 452.511719 775.515625 C 455.972656 775.515625 458.566406 778.109375 458.566406 781.566406 Z M 458.566406 762.546875 C 458.566406 766.003906 455.972656 768.597656 452.511719 768.597656 C 449.054688 768.597656 446.460938 766.003906 446.460938 762.546875 L 446.460938 735.75 C 446.460938 732.292969 449.054688 729.699219 452.511719 729.699219 C 455.972656 729.699219 458.566406 732.292969 458.566406 735.75 Z M 458.566406 716.734375 C 458.566406 720.191406 455.972656 722.785156 452.511719 722.785156 C 449.054688 722.785156 446.460938 720.191406 446.460938 716.734375 L 446.460938 689.9375 C 446.460938 686.480469 449.054688 683.886719 452.511719 683.886719 C 455.972656 683.886719 458.566406 686.480469 458.566406 689.9375 Z M 458.566406 671.785156 C 458.566406 675.242188 455.972656 677.835938 452.511719 677.835938 C 449.054688 677.835938 446.460938 675.242188 446.460938 671.785156 L 446.460938 644.984375 C 446.460938 641.527344 449.054688 638.933594 452.511719 638.933594 C 455.972656 638.933594 458.566406 641.527344 458.566406 644.984375 Z M 458.566406 671.785156 " fill-opacity="1" fill-rule="nonzero"/></g><path fill="#000000" d="M 372.988281 1121.285156 L 372.988281 1124.742188 L 217.390625 1124.742188 L 217.390625 1121.285156 Z M 372.988281 1135.980469 L 372.988281 1139.4375 L 217.390625 1139.4375 L 217.390625 1135.980469 Z M 372.988281 1135.980469 " fill-opacity="1" fill-rule="nonzero"/><path fill="#000000" d="M 372.988281 1092.757812 L 372.988281 1103.132812 L 217.390625 1103.132812 L 217.390625 1092.757812 Z M 372.988281 1107.453125 L 372.988281 1117.828125 L 217.390625 1117.828125 L 217.390625 1107.453125 Z M 372.988281 1107.453125 " fill-opacity="1" fill-rule="nonzero"/><path fill="#000000" d="M 372.988281 1070.285156 L 372.988281 1073.742188 L 217.390625 1073.742188 L 217.390625 1070.285156 Z M 372.988281 1078.0625 L 372.988281 1081.519531 L 217.390625 1081.519531 L 217.390625 1078.0625 Z M 372.988281 1084.976562 L 372.988281 1088.4375 L 217.390625 1088.4375 L 217.390625 1084.976562 Z M 372.988281 1084.976562 " fill-opacity="1" fill-rule="nonzero"/><path fill="#000000" d="M 372.988281 1033.976562 L 372.988281 1044.351562 L 217.390625 1044.351562 L 217.390625 1033.976562 Z M 372.988281 1048.671875 L 372.988281 1059.046875 L 217.390625 1059.046875 L 217.390625 1048.671875 Z M 372.988281 1048.671875 " fill-opacity="1" fill-rule="nonzero"/><path fill="#000000" d="M 217.390625 1027.0625 L 372.988281 1027.0625 L 372.988281 1030.519531 L 217.390625 1030.519531 Z M 217.390625 1027.0625 " fill-opacity="1" fill-rule="nonzero"/><path fill="#000000" d="M 372.988281 997.671875 L 372.988281 1008.042969 L 217.390625 1008.042969 L 217.390625 997.671875 Z M 372.988281 1012.367188 L 372.988281 1022.738281 L 217.390625 1022.738281 L 217.390625 1012.367188 Z M 372.988281 1012.367188 " fill-opacity="1" fill-rule="nonzero"/><path fill="#000000" d="M 372.988281 961.367188 L 372.988281 964.824219 L 217.390625 964.824219 L 217.390625 961.367188 Z M 372.988281 968.28125 L 372.988281 971.738281 L 217.390625 971.738281 L 217.390625 968.28125 Z M 372.988281 976.0625 L 372.988281 979.519531 L 217.390625 979.519531 L 217.390625 976.0625 Z M 372.988281 990.757812 L 372.988281 994.214844 L 217.390625 994.214844 L 217.390625 990.757812 Z M 372.988281 990.757812 " fill-opacity="1" fill-rule="nonzero"/><path fill="#000000" d="M 217.390625 946.671875 L 372.988281 946.671875 L 372.988281 957.042969 L 217.390625 957.042969 Z M 217.390625 946.671875 " fill-opacity="1" fill-rule="nonzero"/><path fill="#000000" d="M 217.390625 939.753906 L 372.988281 939.753906 L 372.988281 943.210938 L 217.390625 943.210938 Z M 217.390625 939.753906 " fill-opacity="1" fill-rule="nonzero"/><path fill="#000000" d="M 217.390625 925.058594 L 372.988281 925.058594 L 372.988281 935.433594 L 217.390625 935.433594 Z M 217.390625 925.058594 " fill-opacity="1" fill-rule="nonzero"/><path fill="#000000" d="M 372.988281 902.585938 L 372.988281 906.042969 L 217.390625 906.042969 L 217.390625 902.585938 Z M 372.988281 910.363281 L 372.988281 913.824219 L 217.390625 913.824219 L 217.390625 910.363281 Z M 372.988281 910.363281 " fill-opacity="1" fill-rule="nonzero"/><path fill="#000000" d="M 217.390625 888.753906 L 372.988281 888.753906 L 372.988281 899.128906 L 217.390625 899.128906 Z M 217.390625 888.753906 " fill-opacity="1" fill-rule="nonzero"/><path fill="#000000" d="M 217.390625 880.972656 L 372.988281 880.972656 L 372.988281 884.433594 L 217.390625 884.433594 Z M 217.390625 880.972656 " fill-opacity="1" fill-rule="nonzero"/><path fill="#000000" d="M 217.390625 866.277344 L 372.988281 866.277344 L 372.988281 876.652344 L 217.390625 876.652344 Z M 217.390625 866.277344 " fill-opacity="1" fill-rule="nonzero"/><path fill="#000000" d="M 372.988281 844.667969 L 372.988281 848.125 L 217.390625 848.125 L 217.390625 844.667969 Z M 372.988281 851.582031 L 372.988281 855.042969 L 217.390625 855.042969 L 217.390625 851.582031 Z M 372.988281 851.582031 " fill-opacity="1" fill-rule="nonzero"/><path fill="#000000" d="M 217.390625 829.972656 L 372.988281 829.972656 L 372.988281 840.347656 L 217.390625 840.347656 Z M 217.390625 829.972656 " fill-opacity="1" fill-rule="nonzero"/><path fill="#000000" d="M 372.988281 808.363281 L 372.988281 811.820312 L 217.390625 811.820312 L 217.390625 808.363281 Z M 372.988281 823.058594 L 372.988281 825.652344 L 217.390625 825.652344 L 217.390625 822.191406 L 372.988281 822.191406 Z M 372.988281 823.058594 " fill-opacity="1" fill-rule="nonzero"/><path fill="#000000" d="M 217.390625 793.667969 L 372.988281 793.667969 L 372.988281 804.039062 L 217.390625 804.039062 Z M 217.390625 793.667969 " fill-opacity="1" fill-rule="nonzero"/><path fill="#000000" d="M 372.988281 778.972656 L 372.988281 782.429688 L 217.390625 782.429688 L 217.390625 778.972656 Z M 372.988281 786.75 L 372.988281 790.210938 L 217.390625 790.210938 L 217.390625 786.75 Z M 372.988281 786.75 " fill-opacity="1" fill-rule="nonzero"/><path fill="#000000" d="M 217.390625 764.277344 L 372.988281 764.277344 L 372.988281 774.648438 L 217.390625 774.648438 Z M 217.390625 764.277344 " fill-opacity="1" fill-rule="nonzero"/><path fill="#000000" d="M 217.390625 749.582031 L 372.988281 749.582031 L 372.988281 753.039062 L 217.390625 753.039062 Z M 217.390625 749.582031 " fill-opacity="1" fill-rule="nonzero"/><path fill="#000000" d="M 217.390625 735.75 L 372.988281 735.75 L 372.988281 746.125 L 217.390625 746.125 Z M 217.390625 735.75 " fill-opacity="1" fill-rule="nonzero"/><path fill="#000000" d="M 372.988281 713.277344 L 372.988281 716.734375 L 217.390625 716.734375 L 217.390625 713.277344 Z M 372.988281 727.972656 L 372.988281 731.429688 L 217.390625 731.429688 L 217.390625 727.972656 Z M 372.988281 727.972656 " fill-opacity="1" fill-rule="nonzero"/><path fill="#000000" d="M 372.988281 683.886719 L 372.988281 694.257812 L 217.390625 694.257812 L 217.390625 683.886719 Z M 372.988281 698.582031 L 372.988281 708.953125 L 217.390625 708.953125 L 217.390625 698.582031 Z M 372.988281 698.582031 " fill-opacity="1" fill-rule="nonzero"/><path fill="#000000" d="M 217.390625 676.96875 L 372.988281 676.96875 L 372.988281 680.425781 L 217.390625 680.425781 Z M 217.390625 676.96875 " fill-opacity="1" fill-rule="nonzero"/><path fill="#1d1d1b" d="M 410.15625 1017.554688 L 384.222656 1007.179688 L 384.222656 1003.722656 L 410.15625 993.347656 L 410.15625 996.808594 L 403.242188 999.402344 L 403.242188 1010.636719 L 410.15625 1013.230469 Z M 399.785156 1010.636719 L 399.785156 1001.128906 C 395.460938 1002.859375 391.140625 1003.722656 386.816406 1005.453125 C 392.003906 1007.179688 396.324219 1008.910156 399.785156 1010.636719 Z M 399.785156 1010.636719 " fill-opacity="1" fill-rule="nonzero"/><path fill="#1d1d1b" d="M 410.15625 982.113281 C 410.15625 983.839844 409.292969 985.570312 408.429688 987.296875 C 407.5625 989.027344 405.835938 989.890625 404.105469 989.890625 C 402.375 990.757812 399.785156 990.757812 397.191406 990.757812 C 392.867188 990.757812 389.410156 989.890625 387.683594 988.164062 C 385.089844 986.433594 384.222656 984.707031 384.222656 981.246094 C 384.222656 978.652344 385.089844 976.0625 387.683594 975.195312 C 390.273438 973.46875 393.734375 972.601562 397.191406 972.601562 C 401.511719 972.601562 404.96875 973.46875 406.699219 975.195312 C 409.292969 976.925781 410.15625 979.519531 410.15625 982.113281 Z M 407.5625 982.113281 C 407.5625 978.652344 404.105469 976.925781 397.191406 976.925781 C 395.460938 976.925781 394.597656 976.925781 392.867188 976.925781 C 392.003906 976.925781 390.273438 977.789062 389.410156 977.789062 C 388.546875 977.789062 387.679688 978.652344 386.816406 979.519531 C 385.953125 980.382812 385.953125 981.246094 385.953125 982.113281 C 385.953125 982.976562 385.953125 983.839844 386.816406 984.707031 C 387.679688 985.570312 387.679688 985.570312 389.410156 986.433594 C 390.273438 986.433594 391.140625 987.296875 392.867188 987.296875 C 393.734375 987.296875 395.460938 987.296875 397.191406 987.296875 C 398.917969 987.296875 401.511719 987.296875 402.375 986.433594 C 404.105469 986.433594 404.96875 985.570312 405.835938 984.707031 C 406.699219 984.707031 407.5625 982.976562 407.5625 982.113281 Z M 407.5625 982.113281 " fill-opacity="1" fill-rule="nonzero"/><path fill="#1d1d1b" d="M 410.15625 966.550781 L 407.5625 966.550781 L 407.5625 961.367188 L 387.683594 961.367188 C 388.546875 962.230469 389.410156 963.960938 390.273438 966.550781 L 386.816406 966.550781 C 386.816406 965.6875 385.953125 964.824219 385.953125 963.09375 C 385.089844 962.230469 385.089844 961.367188 384.222656 960.5 L 384.222656 957.90625 L 407.5625 957.90625 L 407.5625 953.585938 L 410.15625 953.585938 Z M 410.15625 966.550781 " fill-opacity="1" fill-rule="nonzero"/><path fill="#1d1d1b" d="M 383.359375 938.890625 C 383.359375 938.027344 383.359375 937.160156 383.359375 936.296875 C 383.359375 935.433594 384.222656 934.570312 384.222656 933.703125 C 385.089844 932.839844 385.089844 932.839844 385.953125 931.976562 C 386.816406 931.109375 387.683594 931.109375 387.683594 931.109375 C 388.546875 931.109375 389.410156 931.109375 390.273438 931.109375 C 391.140625 931.109375 392.003906 931.109375 392.867188 931.109375 C 393.734375 931.109375 394.597656 931.976562 395.460938 931.976562 C 396.324219 932.839844 397.191406 932.839844 398.054688 933.703125 C 398.917969 934.570312 399.785156 935.433594 400.648438 935.433594 L 406.699219 941.484375 L 406.699219 931.109375 L 409.292969 931.109375 L 409.292969 945.804688 L 406.699219 945.804688 L 398.054688 938.027344 C 396.324219 936.296875 395.460938 935.433594 394.597656 935.433594 C 393.734375 934.570312 392.003906 934.570312 391.140625 934.570312 C 389.410156 934.570312 388.546875 934.570312 387.679688 935.433594 C 386.816406 936.296875 385.953125 937.160156 385.953125 938.890625 C 385.953125 939.753906 385.953125 939.753906 385.953125 940.621094 C 385.953125 941.484375 385.953125 941.484375 385.953125 942.347656 C 385.953125 942.347656 385.953125 943.210938 386.816406 943.210938 C 386.816406 944.078125 386.816406 944.078125 387.679688 944.078125 C 387.679688 944.078125 387.679688 944.941406 388.546875 944.941406 L 385.953125 946.671875 C 385.953125 946.671875 385.953125 946.671875 385.953125 945.804688 C 385.953125 945.804688 385.953125 944.941406 385.089844 944.941406 C 385.089844 944.941406 385.089844 944.078125 384.222656 944.078125 C 384.222656 944.078125 384.222656 943.210938 384.222656 942.347656 C 384.222656 941.484375 384.222656 941.484375 384.222656 940.621094 C 383.359375 939.753906 383.359375 938.890625 383.359375 938.890625 Z M 383.359375 938.890625 " fill-opacity="1" fill-rule="nonzero"/><path fill="#1d1d1b" d="M 410.15625 922.464844 L 407.5625 922.464844 L 407.5625 917.28125 L 387.683594 917.28125 C 388.546875 918.144531 389.410156 919.875 390.273438 922.464844 L 386.816406 922.464844 C 386.816406 921.601562 385.953125 920.738281 385.953125 919.007812 C 385.089844 918.144531 385.089844 917.28125 384.222656 916.414062 L 384.222656 913.820312 L 407.5625 913.820312 L 407.5625 909.5 L 410.15625 909.5 Z M 410.15625 922.464844 " fill-opacity="1" fill-rule="nonzero"/><path fill="#1d1d1b" d="M 383.359375 894.804688 C 383.359375 893.941406 383.359375 893.074219 383.359375 892.210938 C 383.359375 891.347656 384.222656 890.484375 384.222656 889.617188 C 385.089844 888.753906 385.089844 888.753906 385.953125 887.890625 C 386.816406 887.023438 387.683594 887.023438 387.683594 887.023438 C 388.546875 887.023438 389.410156 887.023438 390.273438 887.023438 C 391.140625 887.023438 392.003906 887.023438 392.867188 887.023438 C 393.734375 887.023438 394.597656 887.890625 395.460938 887.890625 C 396.324219 888.753906 397.191406 888.753906 398.054688 889.617188 C 398.917969 890.484375 399.785156 891.347656 400.648438 891.347656 L 406.699219 897.398438 L 406.699219 887.023438 L 409.292969 887.023438 L 409.292969 901.71875 L 406.699219 901.71875 L 398.054688 893.941406 C 396.324219 892.210938 395.460938 891.347656 394.597656 891.347656 C 393.734375 890.484375 392.003906 890.484375 391.140625 890.484375 C 389.410156 890.484375 388.546875 890.484375 387.679688 891.347656 C 386.816406 892.210938 385.953125 893.074219 385.953125 894.804688 C 385.953125 895.667969 385.953125 895.667969 385.953125 896.535156 C 385.953125 897.398438 385.953125 897.398438 385.953125 898.261719 C 385.953125 898.261719 385.953125 899.125 386.816406 899.125 C 386.816406 899.992188 386.816406 899.992188 387.679688 899.992188 C 387.679688 899.992188 387.679688 900.855469 388.546875 900.855469 L 385.953125 901.71875 C 385.953125 901.71875 385.953125 901.71875 385.953125 900.855469 C 385.953125 900.855469 385.953125 899.992188 385.089844 899.992188 C 385.089844 899.992188 385.089844 899.125 384.222656 899.125 C 384.222656 899.125 384.222656 898.261719 384.222656 897.398438 C 384.222656 896.535156 384.222656 896.535156 384.222656 895.667969 C 383.359375 895.667969 383.359375 895.667969 383.359375 894.804688 Z M 383.359375 894.804688 " fill-opacity="1" fill-rule="nonzero"/><path fill="#1d1d1b" d="M 410.15625 873.195312 C 410.15625 874.058594 410.15625 874.921875 410.15625 875.789062 C 410.15625 876.652344 410.15625 877.515625 409.292969 878.382812 C 409.292969 879.246094 408.429688 879.246094 408.429688 880.109375 C 408.429688 880.109375 408.429688 880.972656 408.429688 880.972656 L 405.835938 880.109375 C 406.699219 878.382812 407.5625 875.789062 407.5625 874.058594 C 407.5625 872.328125 406.699219 870.601562 405.835938 869.738281 C 404.96875 868.871094 404.105469 868.007812 402.375 868.007812 C 401.511719 868.007812 400.648438 868.007812 400.648438 868.871094 C 399.785156 868.871094 399.785156 869.738281 398.917969 870.601562 C 398.917969 871.464844 398.054688 872.328125 398.054688 872.328125 C 398.054688 873.195312 398.054688 874.058594 398.054688 874.921875 L 398.054688 876.652344 L 395.460938 876.652344 L 395.460938 874.921875 C 395.460938 872.328125 395.460938 871.464844 394.597656 869.738281 C 393.734375 868.871094 392.867188 868.007812 391.140625 868.007812 C 390.273438 868.007812 389.410156 868.871094 388.546875 869.738281 C 387.683594 870.601562 387.683594 872.328125 387.683594 873.195312 C 387.683594 875.789062 388.546875 877.515625 390.273438 879.246094 L 387.683594 880.972656 C 385.089844 880.109375 385.089844 878.382812 384.222656 877.515625 C 383.359375 876.652344 383.359375 874.921875 383.359375 873.195312 C 383.359375 871.464844 383.359375 870.601562 384.222656 868.871094 C 385.089844 868.007812 385.089844 866.277344 386.816406 866.277344 C 387.683594 865.414062 389.410156 865.414062 390.273438 865.414062 C 392.003906 865.414062 392.867188 865.414062 394.597656 866.277344 C 395.460938 867.144531 396.324219 868.007812 397.191406 869.738281 C 397.191406 868.007812 398.054688 866.277344 399.785156 865.414062 C 400.648438 864.550781 402.375 863.6875 404.105469 863.6875 C 405.835938 863.6875 406.699219 863.6875 408.429688 864.550781 C 409.292969 865.414062 410.15625 866.277344 411.019531 868.007812 C 410.15625 869.738281 410.15625 871.464844 410.15625 873.195312 Z M 410.15625 873.195312 " fill-opacity="1" fill-rule="nonzero"/><path fill="#1d1d1b" d="M 410.15625 850.71875 C 410.15625 852.449219 409.292969 854.175781 408.429688 855.90625 C 407.5625 857.632812 405.835938 858.5 404.105469 858.5 C 402.375 859.363281 399.785156 859.363281 397.191406 859.363281 C 392.867188 859.363281 389.410156 858.5 387.683594 856.769531 C 385.089844 855.042969 384.222656 853.3125 384.222656 849.855469 C 384.222656 847.261719 385.089844 844.667969 387.683594 843.804688 C 390.273438 842.074219 393.734375 841.210938 397.191406 841.210938 C 401.511719 841.210938 404.96875 842.074219 406.699219 843.804688 C 409.292969 845.53125 410.15625 847.261719 410.15625 850.71875 Z M 407.5625 850.71875 C 407.5625 847.261719 404.105469 845.53125 397.191406 845.53125 C 395.460938 845.53125 394.597656 845.53125 392.867188 845.53125 C 392.003906 845.53125 390.273438 846.398438 389.410156 846.398438 C 388.546875 846.398438 387.679688 847.261719 386.816406 848.125 C 385.953125 848.992188 385.953125 849.855469 385.953125 850.71875 C 385.953125 851.582031 385.953125 852.449219 386.816406 853.3125 C 387.679688 854.175781 387.679688 854.175781 389.410156 855.042969 C 390.273438 855.042969 391.140625 855.90625 392.867188 855.90625 C 393.734375 855.90625 395.460938 855.90625 397.191406 855.90625 C 398.917969 855.90625 401.511719 855.90625 402.375 855.042969 C 404.105469 855.042969 404.96875 854.175781 405.835938 853.3125 C 406.699219 852.449219 407.5625 851.582031 407.5625 850.71875 Z M 407.5625 850.71875 " fill-opacity="1" fill-rule="nonzero"/><path fill="#1d1d1b" d="M 410.15625 834.296875 L 407.5625 834.296875 L 407.5625 829.109375 L 387.683594 829.109375 C 388.546875 829.972656 389.410156 831.703125 390.273438 834.296875 L 386.816406 834.296875 C 386.816406 833.429688 385.953125 832.566406 385.953125 830.835938 C 385.089844 829.972656 385.089844 829.109375 384.222656 828.246094 L 384.222656 825.652344 L 407.5625 825.652344 L 407.5625 821.328125 L 410.15625 821.328125 Z M 410.15625 834.296875 " fill-opacity="1" fill-rule="nonzero"/><path fill="#1d1d1b" d="M 383.359375 806.632812 C 383.359375 805.769531 383.359375 804.90625 383.359375 804.039062 C 383.359375 803.175781 384.222656 802.3125 384.222656 801.445312 C 385.089844 800.582031 385.089844 800.582031 385.953125 799.71875 C 386.816406 798.855469 387.683594 798.855469 387.683594 798.855469 C 388.546875 798.855469 389.410156 798.855469 390.273438 798.855469 C 391.140625 798.855469 392.003906 798.855469 392.867188 798.855469 C 393.734375 798.855469 394.597656 799.71875 395.460938 799.71875 C 396.324219 800.582031 397.191406 800.582031 398.054688 801.445312 C 398.917969 802.3125 399.785156 803.175781 400.648438 803.175781 L 406.699219 809.226562 L 406.699219 798.855469 L 409.292969 798.855469 L 409.292969 813.550781 L 406.699219 813.550781 L 398.054688 805.769531 C 396.324219 804.039062 395.460938 803.175781 394.597656 803.175781 C 393.734375 802.3125 392.003906 802.3125 391.140625 802.3125 C 389.410156 802.3125 388.546875 802.3125 387.679688 803.175781 C 386.816406 804.039062 385.953125 804.90625 385.953125 806.632812 C 385.953125 807.5 385.953125 807.5 385.953125 808.363281 C 385.953125 809.226562 385.953125 809.226562 385.953125 810.089844 C 385.953125 810.089844 385.953125 810.957031 386.816406 810.957031 C 386.816406 811.820312 386.816406 811.820312 387.679688 811.820312 C 387.679688 811.820312 387.679688 812.683594 388.546875 812.683594 L 385.953125 813.550781 C 385.953125 813.550781 385.953125 813.550781 385.953125 812.683594 C 385.953125 812.683594 385.953125 811.820312 385.089844 811.820312 C 385.089844 811.820312 385.089844 810.957031 384.222656 810.957031 C 384.222656 810.957031 384.222656 810.089844 384.222656 809.226562 C 384.222656 808.363281 384.222656 808.363281 384.222656 807.5 C 383.359375 808.363281 383.359375 807.5 383.359375 806.632812 Z M 383.359375 806.632812 " fill-opacity="1" fill-rule="nonzero"/></svg>